<svg width="20" height="18" viewBox="0 0 20 18" fill="none" xmlns="http://www.w3.org/2000/svg">
    <path d="M13.5 18L12 5H14.23L13.1 0.46L14.84 0L16.09 5H20L18.5 18H13.5ZM3 8H8C8.79565 8 9.55871 8.31607 10.1213 8.87868C10.6839 9.44129 11 10.2044 11 11H0C0 10.2044 0.316071 9.44129 0.87868 8.87868C1.44129 8.31607 2.20435 8 3 8ZM11 15C11 15.7956 10.6839 16.5587 10.1213 17.1213C9.55871 17.6839 8.79565 18 8 18H3C2.20435 18 1.44129 17.6839 0.87868 17.1213C0.316071 16.5587 0 15.7956 0 15H11ZM1 12H6L7.5 13.5L9 12H10C10.2652 12 10.5196 12.1054 10.7071 12.2929C10.8946 12.4804 11 12.7348 11 13C11 13.2652 10.8946 13.5196 10.7071 13.7071C10.5196 13.8946 10.2652 14 10 14H1C0.734784 14 0.48043 13.8946 0.292893 13.7071C0.105357 13.5196 0 13.2652 0 13C0 12.7348 0.105357 12.4804 0.292893 12.2929C0.48043 12.1054 0.734784 12 1 12Z"
          fill="white"/>
</svg>
