<svg width="27" height="20" viewBox="0 0 27 20" fill="none" xmlns="http://www.w3.org/2000/svg">
<path d="M24.1259 0.588235C22.8071 0.176471 21.3576 0 19.9675 0C17.6506 0 15.1556 0.470588 13.4328 1.76471C11.71 0.470588 9.215 0 6.89817 0C4.58134 0 2.0863 0.470588 0.363525 1.76471V19C0.363525 19.2941 0.660555 19.5882 0.957584 19.5882C1.0764 19.5882 1.1358 19.5294 1.25461 19.5294C2.85857 18.7647 5.1754 18.2353 6.89817 18.2353C9.215 18.2353 11.71 18.7059 13.4328 20C15.0368 19 17.9477 18.2353 19.9675 18.2353C21.9279 18.2353 23.9477 18.5882 25.611 19.4706C25.7298 19.5294 25.7892 19.5294 25.908 19.5294C26.2051 19.5294 26.5021 19.2353 26.5021 18.9412V1.76471C25.7892 1.23529 25.017 0.882353 24.1259 0.588235ZM24.1259 16.4706C22.8189 16.0588 21.3932 15.8824 19.9675 15.8824C17.9477 15.8824 15.0368 16.6471 13.4328 17.6471V4.11765C15.0368 3.11765 17.9477 2.35294 19.9675 2.35294C21.3932 2.35294 22.8189 2.52941 24.1259 2.94118V16.4706Z" fill="white"/>
</svg>
