<svg width="26" height="24" viewBox="0 0 26 24" fill="none" xmlns="http://www.w3.org/2000/svg">
<path d="M22.9449 10.0415H22.1073V10H12.7484V14H18.6253C17.7679 16.3285 15.464 18 12.7484 18C9.30275 18 6.50912 15.3135 6.50912 12C6.50912 8.6865 9.30275 6 12.7484 6C14.3389 6 15.7859 6.577 16.8876 7.5195L19.8289 4.691C17.9717 3.0265 15.4874 2 12.7484 2C7.00566 2 2.34961 6.4775 2.34961 12C2.34961 17.5225 7.00566 22 12.7484 22C18.4911 22 23.1472 17.5225 23.1472 12C23.1472 11.3295 23.0754 10.675 22.9449 10.0415Z" fill="#FFC107"/>
<path d="M3.54883 7.3455L6.96535 9.755C7.8898 7.554 10.1287 6 12.7486 6C14.3391 6 15.7861 6.577 16.8879 7.5195L19.8291 4.691C17.9719 3.0265 15.4877 2 12.7486 2C8.75445 2 5.29062 4.1685 3.54883 7.3455Z" fill="#FF3D00"/>
<path d="M12.7487 22.0003C15.4347 22.0003 17.8753 21.0118 19.7206 19.4043L16.5022 16.7853C15.423 17.5745 14.1044 18.0014 12.7487 18.0003C10.044 18.0003 7.74743 16.3418 6.88225 14.0273L3.49121 16.5398C5.21221 19.7783 8.70724 22.0003 12.7487 22.0003Z" fill="#4CAF50"/>
<path d="M22.9451 10.0415H22.1074V10H12.7485V14H18.6254C18.2153 15.1082 17.4765 16.0766 16.5004 16.7855L16.502 16.7845L19.7204 19.4035C19.4927 19.6025 23.1473 17 23.1473 12C23.1473 11.3295 23.0756 10.675 22.9451 10.0415Z" fill="#1976D2"/>
</svg>
