<svg width="55" height="64" viewBox="0 0 55 64" fill="none" xmlns="http://www.w3.org/2000/svg">
<path d="M27.9444 44C39.0208 44 48 35.0457 48 24C48 12.9543 39.0208 4 27.9444 4H11C10.4477 4 10 4.44772 10 5V24V43C10 43.5523 10.4477 44 11 44H27.9444Z" fill="#F5F6F7"/>
<path d="M6.50861 63.072C5.57261 63.072 4.72661 62.856 3.97061 62.424C3.22661 61.98 2.63261 61.38 2.18861 60.624C1.75661 59.868 1.54061 59.016 1.54061 58.068C1.54061 57.12 1.73861 56.274 2.13461 55.53C2.54261 54.774 3.09461 54.18 3.79061 53.748C4.48661 53.304 5.27261 53.082 6.14861 53.082C6.85661 53.082 7.51061 53.232 8.11061 53.532C8.71061 53.82 9.21461 54.216 9.62261 54.72V49.86C9.62261 49.584 9.70661 49.362 9.87461 49.194C10.0546 49.026 10.2766 48.942 10.5406 48.942C10.8166 48.942 11.0386 49.026 11.2066 49.194C11.3746 49.362 11.4586 49.584 11.4586 49.86V58.068C11.4586 59.016 11.2366 59.868 10.7926 60.624C10.3606 61.38 9.77261 61.98 9.02861 62.424C8.28461 62.856 7.44461 63.072 6.50861 63.072ZM6.50861 61.452C7.12061 61.452 7.66661 61.308 8.14661 61.02C8.62661 60.72 9.00461 60.312 9.28061 59.796C9.55661 59.28 9.69461 58.704 9.69461 58.068C9.69461 57.42 9.55661 56.844 9.28061 56.34C9.00461 55.836 8.62661 55.44 8.14661 55.152C7.66661 54.852 7.12061 54.702 6.50861 54.702C5.90861 54.702 5.36261 54.852 4.87061 55.152C4.39061 55.44 4.00661 55.836 3.71861 56.34C3.44261 56.844 3.30461 57.42 3.30461 58.068C3.30461 58.704 3.44261 59.28 3.71861 59.796C4.00661 60.312 4.39061 60.72 4.87061 61.02C5.36261 61.308 5.90861 61.452 6.50861 61.452ZM16.6989 63C16.4349 63 16.2129 62.916 16.0329 62.748C15.8649 62.568 15.7809 62.346 15.7809 62.082V54.072C15.7809 53.796 15.8649 53.574 16.0329 53.406C16.2129 53.238 16.4349 53.154 16.6989 53.154C16.9749 53.154 17.1969 53.238 17.3649 53.406C17.5329 53.574 17.6169 53.796 17.6169 54.072V62.082C17.6169 62.346 17.5329 62.568 17.3649 62.748C17.1969 62.916 16.9749 63 16.6989 63ZM16.6989 51.552C16.3749 51.552 16.0929 51.438 15.8529 51.21C15.6249 50.97 15.5109 50.688 15.5109 50.364C15.5109 50.04 15.6249 49.764 15.8529 49.536C16.0929 49.296 16.3749 49.176 16.6989 49.176C17.0229 49.176 17.2989 49.296 17.5269 49.536C17.7669 49.764 17.8869 50.04 17.8869 50.364C17.8869 50.688 17.7669 50.97 17.5269 51.21C17.2989 51.438 17.0229 51.552 16.6989 51.552ZM25.2625 62.982C24.8905 62.982 24.6025 62.784 24.3985 62.388L20.5825 54.342C20.4865 54.138 20.4745 53.94 20.5465 53.748C20.6305 53.544 20.7865 53.388 21.0145 53.28C21.2185 53.172 21.4225 53.154 21.6265 53.226C21.8425 53.298 22.0045 53.436 22.1125 53.64L25.2445 60.39L28.3405 53.64C28.4485 53.436 28.6105 53.298 28.8265 53.226C29.0545 53.154 29.2825 53.172 29.5105 53.28C29.7265 53.376 29.8705 53.526 29.9425 53.73C30.0145 53.934 30.0025 54.138 29.9065 54.342L26.0905 62.388C25.9105 62.784 25.6345 62.982 25.2625 62.982ZM36.9683 63.072C35.9723 63.072 35.0843 62.862 34.3043 62.442C33.5363 62.01 32.9303 61.422 32.4863 60.678C32.0543 59.922 31.8383 59.058 31.8383 58.086C31.8383 57.102 32.0423 56.238 32.4503 55.494C32.8703 54.738 33.4463 54.15 34.1783 53.73C34.9103 53.298 35.7503 53.082 36.6983 53.082C37.6343 53.082 38.4383 53.292 39.1103 53.712C39.7823 54.12 40.2923 54.69 40.6403 55.422C41.0003 56.142 41.1803 56.976 41.1803 57.924C41.1803 58.152 41.1023 58.344 40.9463 58.5C40.7903 58.644 40.5923 58.716 40.3523 58.716H33.5123C33.6443 59.544 34.0223 60.222 34.6463 60.75C35.2823 61.266 36.0563 61.524 36.9683 61.524C37.3403 61.524 37.7183 61.458 38.1023 61.326C38.4983 61.182 38.8163 61.02 39.0563 60.84C39.2363 60.708 39.4283 60.642 39.6323 60.642C39.8483 60.63 40.0343 60.69 40.1903 60.822C40.3943 61.002 40.5023 61.2 40.5143 61.416C40.5263 61.632 40.4303 61.818 40.2263 61.974C39.8183 62.298 39.3083 62.562 38.6963 62.766C38.0963 62.97 37.5203 63.072 36.9683 63.072ZM36.6983 54.63C35.8103 54.63 35.0963 54.876 34.5563 55.368C34.0163 55.86 33.6743 56.496 33.5303 57.276H39.5243C39.4163 56.508 39.1223 55.878 38.6423 55.386C38.1623 54.882 37.5143 54.63 36.6983 54.63ZM48.004 63.072C47.164 63.072 46.384 62.946 45.664 62.694C44.956 62.43 44.404 62.1 44.008 61.704C43.828 61.512 43.75 61.296 43.774 61.056C43.81 60.804 43.93 60.6 44.134 60.444C44.374 60.252 44.608 60.174 44.836 60.21C45.076 60.234 45.28 60.336 45.448 60.516C45.652 60.744 45.976 60.96 46.42 61.164C46.876 61.356 47.38 61.452 47.932 61.452C48.628 61.452 49.156 61.338 49.516 61.11C49.888 60.882 50.08 60.588 50.092 60.228C50.104 59.868 49.93 59.556 49.57 59.292C49.222 59.028 48.58 58.812 47.644 58.644C46.432 58.404 45.55 58.044 44.998 57.564C44.458 57.084 44.188 56.496 44.188 55.8C44.188 55.188 44.368 54.684 44.728 54.288C45.088 53.88 45.55 53.58 46.114 53.388C46.678 53.184 47.266 53.082 47.878 53.082C48.67 53.082 49.372 53.208 49.984 53.46C50.596 53.712 51.082 54.06 51.442 54.504C51.61 54.696 51.688 54.9 51.676 55.116C51.664 55.32 51.562 55.494 51.37 55.638C51.178 55.77 50.95 55.812 50.686 55.764C50.422 55.716 50.2 55.608 50.02 55.44C49.72 55.152 49.396 54.954 49.048 54.846C48.7 54.738 48.298 54.684 47.842 54.684C47.314 54.684 46.864 54.774 46.492 54.954C46.132 55.134 45.952 55.398 45.952 55.746C45.952 55.962 46.006 56.16 46.114 56.34C46.234 56.508 46.462 56.664 46.798 56.808C47.134 56.94 47.626 57.072 48.274 57.204C49.63 57.468 50.566 57.846 51.082 58.338C51.61 58.818 51.874 59.412 51.874 60.12C51.874 60.672 51.724 61.17 51.424 61.614C51.136 62.058 50.704 62.412 50.128 62.676C49.564 62.94 48.856 63.072 48.004 63.072Z" fill="white"/>
<g filter="url(#filter0_d)">
<path d="M42.5 24C42.5 32.0081 36.0081 38.5 28 38.5H15.5V24V9.5H28C36.0081 9.5 42.5 15.9919 42.5 24Z" stroke="#70CC9E" stroke-width="9"/>
</g>
<g filter="url(#filter1_d)">
<rect x="29" y="42.9762" width="18" height="37.9762" rx="1" transform="rotate(-180 29 42.9762)" fill="#70CC9E"/>
<path fill-rule="evenodd" clip-rule="evenodd" d="M26.5245 37.6643L26.5245 10.3701C24.9923 10.1295 23.7892 8.87296 23.5994 7.2973L16.3591 7.2973C16.1682 8.88121 14.9535 10.1426 13.4098 10.3738L13.4098 37.6605C14.9386 37.8894 16.1446 39.1287 16.3532 40.6911L23.6059 40.6911C23.8134 39.1372 25.0075 37.9029 26.5245 37.6643Z" fill="#4BBF85"/>
<path d="M22.9943 26.1667C23.4785 25.8334 23.8243 25.2887 23.8243 24C23.8243 22.7114 22.9573 21.6667 21.8877 21.6667C20.8182 21.6667 19.9512 22.25 19.9512 24C19.9512 25.75 19.0842 26.3334 18.0147 26.3334C16.9452 26.3334 16.0782 25.2887 16.0782 24C16.0782 22.7114 16.424 22.0834 16.9081 21.6667M25 24L14.8333 24" stroke="#70CC9E"/>
</g>
<defs>
<filter id="filter0_d" x="7" y="1" width="48" height="50" filterUnits="userSpaceOnUse" color-interpolation-filters="sRGB">
<feFlood flood-opacity="0" result="BackgroundImageFix"/>
<feColorMatrix in="SourceAlpha" type="matrix" values="0 0 0 0 0 0 0 0 0 0 0 0 0 0 0 0 0 0 127 0"/>
<feOffset dx="2" dy="2"/>
<feGaussianBlur stdDeviation="3"/>
<feColorMatrix type="matrix" values="0 0 0 0 0 0 0 0 0 0 0 0 0 0 0 0 0 0 0.1 0"/>
<feBlend mode="normal" in2="BackgroundImageFix" result="effect1_dropShadow"/>
<feBlend mode="normal" in="SourceGraphic" in2="effect1_dropShadow" result="shape"/>
</filter>
<filter id="filter1_d" x="10" y="0" width="28" height="47.9762" filterUnits="userSpaceOnUse" color-interpolation-filters="sRGB">
<feFlood flood-opacity="0" result="BackgroundImageFix"/>
<feColorMatrix in="SourceAlpha" type="matrix" values="0 0 0 0 0 0 0 0 0 0 0 0 0 0 0 0 0 0 127 0"/>
<feOffset dx="4"/>
<feGaussianBlur stdDeviation="2.5"/>
<feColorMatrix type="matrix" values="0 0 0 0 0 0 0 0 0 0 0 0 0 0 0 0 0 0 0.1 0"/>
<feBlend mode="normal" in2="BackgroundImageFix" result="effect1_dropShadow"/>
<feBlend mode="normal" in="SourceGraphic" in2="effect1_dropShadow" result="shape"/>
</filter>
</defs>
</svg>
