<svg width="55" height="64" fill="none" xmlns="http://www.w3.org/2000/svg">
    <path d="M27.9444 44C39.0208 44 48 35.0457 48 24S39.0208 4 27.9444 4H11c-.5523 0-1 .44772-1 1v38c0 .5523.4477 1 1 1h16.9444z"
          fill="#F5F6F7"/>
    <path d="M6.50861 63.072c-.936 0-1.782-.216-2.538-.648-.744-.444-1.338-1.044-1.782-1.8-.432-.756-.648-1.608-.648-2.556s.198-1.794.594-2.538c.408-.756.96-1.35 1.656-1.782.696-.444 1.482-.666 2.358-.666.708 0 1.362.15 1.962.45.6.288 1.104.684 1.512 1.188v-4.86c0-.276.084-.498.252-.666.17999-.168.40199-.252.66599-.252.276 0 .498.084.666.252.168.168.252.39.252.666v8.208c0 .948-.222 1.8-.666 2.556-.432.756-1.01999 1.356-1.76399 1.8-.744.432-1.584.648-2.52.648zm0-1.62c.612 0 1.158-.144 1.638-.432.48-.3.858-.708 1.134-1.224.276-.516.414-1.092.414-1.728 0-.648-.138-1.224-.414-1.728-.276-.504-.654-.9-1.134-1.188-.48-.3-1.026-.45-1.638-.45-.6 0-1.146.15-1.638.45-.48.288-.864.684-1.152 1.188-.276.504-.414 1.08-.414 1.728 0 .636.138 1.212.414 1.728.288.516.672.924 1.152 1.224.492.288 1.038.432 1.638.432zM16.6989 63c-.264 0-.486-.084-.666-.252-.168-.18-.252-.402-.252-.666v-8.01c0-.276.084-.498.252-.666.18-.168.402-.252.666-.252.276 0 .498.084.666.252.168.168.252.39.252.666v8.01c0 .264-.084.486-.252.666-.168.168-.39.252-.666.252zm0-11.448c-.324 0-.606-.114-.846-.342-.228-.24-.342-.522-.342-.846 0-.324.114-.6.342-.828.24-.24.522-.36.846-.36.324 0 .6.12.828.36.24.228.36.504.36.828 0 .324-.12.606-.36.846-.228.228-.504.342-.828.342zm8.5636 11.43c-.372 0-.66-.198-.864-.594l-3.816-8.046c-.096-.204-.108-.402-.036-.594.084-.204.24-.36.468-.468.204-.108.408-.126.612-.054.216.072.378.21.486.414l3.132 6.75 3.096-6.75c.108-.204.27-.342.486-.414.228-.072.456-.054.684.054.216.096.36.246.432.45.072.204.06.408-.036.612l-3.816 8.046c-.18.396-.456.594-.828.594zm11.7058.09c-.996 0-1.884-.21-2.664-.63-.768-.432-1.374-1.02-1.818-1.764-.432-.756-.648-1.62-.648-2.592 0-.984.204-1.848.612-2.592.42-.756.996-1.344 1.728-1.764.732-.432 1.572-.648 2.52-.648.936 0 1.74.21 2.412.63.672.408 1.182.978 1.53 1.71.36.72.54 1.554.54 2.502 0 .228-.078.42-.234.576-.156.144-.354.216-.594.216h-6.84c.132.828.51 1.506 1.134 2.034.636.516 1.41.774 2.322.774.372 0 .75-.066 1.134-.198.396-.144.714-.306.954-.486.18-.132.372-.198.576-.198.216-.012.402.048.558.18.204.18.312.378.324.594.012.216-.084.402-.288.558-.408.324-.918.588-1.53.792-.6.204-1.176.306-1.728.306zm-.27-8.442c-.888 0-1.602.246-2.142.738-.54.492-.882 1.128-1.026 1.908h5.994c-.108-.768-.402-1.398-.882-1.89-.48-.504-1.128-.756-1.944-.756zm11.3057 8.442c-.84 0-1.62-.126-2.34-.378-.708-.264-1.26-.594-1.656-.99-.18-.192-.258-.408-.234-.648.036-.252.156-.456.36-.612.24-.192.474-.27.702-.234.24.024.444.126.612.306.204.228.528.444.972.648.456.192.96.288 1.512.288.696 0 1.224-.114 1.584-.342.372-.228.564-.522.576-.882.012-.36-.162-.672-.522-.936-.348-.264-.99-.48-1.926-.648-1.212-.24-2.094-.6-2.646-1.08-.54-.48-.81-1.068-.81-1.764 0-.612.18-1.116.54-1.512.36-.408.822-.708 1.386-.9.564-.204 1.152-.306 1.764-.306.792 0 1.494.126 2.106.378.612.252 1.098.6 1.458 1.044.168.192.246.396.234.612-.012.204-.114.378-.306.522-.192.132-.42.174-.684.126-.264-.048-.486-.156-.666-.324-.3-.288-.624-.486-.972-.594-.348-.108-.75-.162-1.206-.162-.528 0-.978.09-1.35.27-.36.18-.54.444-.54.792 0 .216.054.414.162.594.12.168.348.324.684.468.336.132.828.264 1.476.396 1.356.264 2.292.642 2.808 1.134.528.48.792 1.074.792 1.782 0 .552-.15 1.05-.45 1.494-.288.444-.72.798-1.296 1.062-.564.264-1.272.396-2.124.396z"
          fill="#fff"/>
    <g filter="url(#filter0_d)">
        <path d="M42.5 24c0 8.0081-6.4919 14.5-14.5 14.5H15.5v-29H28c8.0081 0 14.5 6.4919 14.5 14.5z" stroke="#70CC9E"
              stroke-width="9"/>
    </g>
    <g filter="url(#filter1_d)">
        <rect x="29" y="42.9763" width="18" height="37.9762" rx="1" transform="rotate(-180 29 42.9763)" fill="#70CC9E"/>
        <path fill-rule="evenodd" clip-rule="evenodd"
              d="M26.5244 37.6644V10.3702c-1.5322-.2407-2.7352-1.49718-2.9251-3.07284H16.359c-.1909 1.58391-1.4056 2.84534-2.9492 3.07644v27.2868c1.5287.2289 2.7348 1.4682 2.9434 3.0305h7.2526c.2075-1.5538 1.4017-2.7881 2.9186-3.0267z"
              fill="#4BBF85"/>
        <path d="M22.9943 26.1668c.4842-.3334.83-.878.83-2.1667s-.867-2.3334-1.9366-2.3334c-1.0695 0-1.9365.5834-1.9365 2.3334s-.867 2.3333-1.9365 2.3333c-1.0695 0-1.9365-1.0446-1.9365-2.3333s.3458-1.9167.8299-2.3334M25 24.0001H14.8333"
              stroke="#70CC9E"/>
    </g>
    <defs>
        <filter id="filter0_d" x="7" y="1" width="48" height="50" filterUnits="userSpaceOnUse"
                color-interpolation-filters="sRGB">
            <feFlood flood-opacity="0" result="BackgroundImageFix"/>
            <feColorMatrix in="SourceAlpha" values="0 0 0 0 0 0 0 0 0 0 0 0 0 0 0 0 0 0 127 0"/>
            <feOffset dx="2" dy="2"/>
            <feGaussianBlur stdDeviation="3"/>
            <feColorMatrix values="0 0 0 0 0 0 0 0 0 0 0 0 0 0 0 0 0 0 0.1 0"/>
            <feBlend in2="BackgroundImageFix" result="effect1_dropShadow"/>
            <feBlend in="SourceGraphic" in2="effect1_dropShadow" result="shape"/>
        </filter>
        <filter id="filter1_d" x="10" y="0" width="28" height="47.9762" filterUnits="userSpaceOnUse"
                color-interpolation-filters="sRGB">
            <feFlood flood-opacity="0" result="BackgroundImageFix"/>
            <feColorMatrix in="SourceAlpha" values="0 0 0 0 0 0 0 0 0 0 0 0 0 0 0 0 0 0 127 0"/>
            <feOffset dx="4"/>
            <feGaussianBlur stdDeviation="2.5"/>
            <feColorMatrix values="0 0 0 0 0 0 0 0 0 0 0 0 0 0 0 0 0 0 0.1 0"/>
            <feBlend in2="BackgroundImageFix" result="effect1_dropShadow"/>
            <feBlend in="SourceGraphic" in2="effect1_dropShadow" result="shape"/>
        </filter>
    </defs>
</svg>
