<svg width="169" height="77" viewBox="0 0 169 77" fill="none" xmlns="http://www.w3.org/2000/svg">
<path d="M32.3986 69.7795C50.7895 69.7795 65.6983 54.9063 65.6983 36.5592C65.6983 18.2121 50.7895 3.33887 32.3986 3.33887H3.604C3.05172 3.33887 2.604 3.78658 2.604 4.33887V36.5592V68.7795C2.604 69.3318 3.05172 69.7795 3.604 69.7795H32.3986Z" fill="#F5F6F7"/>
<g filter="url(#filter0_d)">
<path d="M55.0377 36.5593C55.0377 49.0218 44.9398 59.1186 32.4906 59.1186H13.2642V36.5593V14H32.4906C44.9398 14 55.0377 24.0969 55.0377 36.5593Z" stroke="#70CC9E" stroke-width="18"/>
</g>
<g filter="url(#filter1_d)">
<rect x="34.1509" y="68.0791" width="29.8868" height="63.0791" rx="1" transform="rotate(-180 34.1509 68.0791)" fill="#70CC9E"/>
<path fill-rule="evenodd" clip-rule="evenodd" d="M30.0405 59.2556L30.0405 13.9194C27.4965 13.5197 25.499 11.4326 25.1838 8.81543L13.1621 8.81543C12.8452 11.4463 10.8283 13.5415 8.26525 13.9255L8.26525 59.2492C10.8035 59.6294 12.8061 61.688 13.1525 64.2831L25.1946 64.2831C25.5391 61.7021 27.5219 59.6518 30.0405 59.2556Z" fill="#4BBF85"/>
<path d="M24.1791 40.1582C24.9829 39.6045 25.5571 38.6998 25.5571 36.5593C25.5571 34.4188 24.1176 32.6836 22.3418 32.6836C20.566 32.6836 19.1264 33.6525 19.1264 36.5593C19.1264 39.4661 17.6869 40.435 15.9111 40.435C14.1353 40.435 12.6957 38.6998 12.6957 36.5593C12.6957 34.4188 13.2699 33.3757 14.0738 32.6836M27.5093 36.5593L10.6287 36.5593" stroke="#70CC9E"/>
</g>
<path d="M73.2886 56C72.5846 56 71.9926 55.776 71.5126 55.328C71.0646 54.848 70.8406 54.256 70.8406 53.552V32.192C70.8406 31.456 71.0646 30.864 71.5126 30.416C71.9926 29.968 72.5846 29.744 73.2886 29.744C74.0246 29.744 74.6166 29.968 75.0646 30.416C75.5126 30.864 75.7366 31.456 75.7366 32.192V53.552C75.7366 54.256 75.5126 54.848 75.0646 55.328C74.6166 55.776 74.0246 56 73.2886 56ZM73.2886 25.472C72.4246 25.472 71.6726 25.168 71.0326 24.56C70.4246 23.92 70.1206 23.168 70.1206 22.304C70.1206 21.44 70.4246 20.704 71.0326 20.096C71.6726 19.456 72.4246 19.136 73.2886 19.136C74.1526 19.136 74.8886 19.456 75.4966 20.096C76.1366 20.704 76.4566 21.44 76.4566 22.304C76.4566 23.168 76.1366 23.92 75.4966 24.56C74.8886 25.168 74.1526 25.472 73.2886 25.472ZM96.125 55.952C95.133 55.952 94.365 55.424 93.821 54.368L83.645 32.912C83.389 32.368 83.357 31.84 83.549 31.328C83.773 30.784 84.189 30.368 84.797 30.08C85.341 29.792 85.885 29.744 86.429 29.936C87.005 30.128 87.437 30.496 87.725 31.04L96.077 49.04L104.333 31.04C104.621 30.496 105.053 30.128 105.629 29.936C106.237 29.744 106.845 29.792 107.453 30.08C108.029 30.336 108.413 30.736 108.605 31.28C108.797 31.824 108.765 32.368 108.509 32.912L98.333 54.368C97.853 55.424 97.117 55.952 96.125 55.952ZM127.34 56.192C124.684 56.192 122.316 55.632 120.236 54.512C118.188 53.36 116.572 51.792 115.388 49.808C114.236 47.792 113.66 45.488 113.66 42.896C113.66 40.272 114.204 37.968 115.292 35.984C116.412 33.968 117.948 32.4 119.9 31.28C121.852 30.128 124.092 29.552 126.62 29.552C129.116 29.552 131.26 30.112 133.052 31.232C134.844 32.32 136.204 33.84 137.132 35.792C138.092 37.712 138.572 39.936 138.572 42.464C138.572 43.072 138.364 43.584 137.948 44C137.532 44.384 137.004 44.576 136.364 44.576H118.124C118.476 46.784 119.484 48.592 121.148 50C122.844 51.376 124.908 52.064 127.34 52.064C128.332 52.064 129.34 51.888 130.364 51.536C131.42 51.152 132.268 50.72 132.908 50.24C133.388 49.888 133.9 49.712 134.444 49.712C135.02 49.68 135.516 49.84 135.932 50.192C136.476 50.672 136.764 51.2 136.796 51.776C136.828 52.352 136.572 52.848 136.028 53.264C134.94 54.128 133.58 54.832 131.948 55.376C130.348 55.92 128.812 56.192 127.34 56.192ZM126.62 33.68C124.252 33.68 122.348 34.336 120.908 35.648C119.468 36.96 118.556 38.656 118.172 40.736H134.156C133.868 38.688 133.084 37.008 131.804 35.696C130.524 34.352 128.796 33.68 126.62 33.68ZM156.769 56.192C154.529 56.192 152.449 55.856 150.529 55.184C148.641 54.48 147.169 53.6 146.113 52.544C145.633 52.032 145.425 51.456 145.489 50.816C145.585 50.144 145.905 49.6 146.449 49.184C147.089 48.672 147.713 48.464 148.321 48.56C148.961 48.624 149.505 48.896 149.953 49.376C150.497 49.984 151.361 50.56 152.545 51.104C153.761 51.616 155.105 51.872 156.577 51.872C158.433 51.872 159.841 51.568 160.801 50.96C161.793 50.352 162.305 49.568 162.337 48.608C162.369 47.648 161.905 46.816 160.945 46.112C160.017 45.408 158.305 44.832 155.809 44.384C152.577 43.744 150.225 42.784 148.753 41.504C147.313 40.224 146.593 38.656 146.593 36.8C146.593 35.168 147.073 33.824 148.033 32.768C148.993 31.68 150.225 30.88 151.729 30.368C153.233 29.824 154.801 29.552 156.433 29.552C158.545 29.552 160.417 29.888 162.049 30.56C163.681 31.232 164.977 32.16 165.937 33.344C166.385 33.856 166.593 34.4 166.561 34.976C166.529 35.52 166.257 35.984 165.745 36.368C165.233 36.72 164.625 36.832 163.921 36.704C163.217 36.576 162.625 36.288 162.145 35.84C161.345 35.072 160.481 34.544 159.553 34.256C158.625 33.968 157.553 33.824 156.337 33.824C154.929 33.824 153.729 34.064 152.737 34.544C151.777 35.024 151.297 35.728 151.297 36.656C151.297 37.232 151.441 37.76 151.729 38.24C152.049 38.688 152.657 39.104 153.553 39.488C154.449 39.84 155.761 40.192 157.489 40.544C161.105 41.248 163.601 42.256 164.977 43.568C166.385 44.848 167.089 46.432 167.089 48.32C167.089 49.792 166.689 51.12 165.889 52.304C165.121 53.488 163.969 54.432 162.433 55.136C160.929 55.84 159.041 56.192 156.769 56.192Z" fill="#70CC9E"/>
<defs>
<filter id="filter0_d" x="0.26416" y="1" width="71.7736" height="75.1186" filterUnits="userSpaceOnUse" color-interpolation-filters="sRGB">
<feFlood flood-opacity="0" result="BackgroundImageFix"/>
<feColorMatrix in="SourceAlpha" type="matrix" values="0 0 0 0 0 0 0 0 0 0 0 0 0 0 0 0 0 0 127 0"/>
<feOffset dx="2" dy="2"/>
<feGaussianBlur stdDeviation="3"/>
<feColorMatrix type="matrix" values="0 0 0 0 0 0 0 0 0 0 0 0 0 0 0 0 0 0 0.1 0"/>
<feBlend mode="normal" in2="BackgroundImageFix" result="effect1_dropShadow"/>
<feBlend mode="normal" in="SourceGraphic" in2="effect1_dropShadow" result="shape"/>
</filter>
<filter id="filter1_d" x="3.26416" y="0" width="39.8868" height="73.0791" filterUnits="userSpaceOnUse" color-interpolation-filters="sRGB">
<feFlood flood-opacity="0" result="BackgroundImageFix"/>
<feColorMatrix in="SourceAlpha" type="matrix" values="0 0 0 0 0 0 0 0 0 0 0 0 0 0 0 0 0 0 127 0"/>
<feOffset dx="4"/>
<feGaussianBlur stdDeviation="2.5"/>
<feColorMatrix type="matrix" values="0 0 0 0 0 0 0 0 0 0 0 0 0 0 0 0 0 0 0.1 0"/>
<feBlend mode="normal" in2="BackgroundImageFix" result="effect1_dropShadow"/>
<feBlend mode="normal" in="SourceGraphic" in2="effect1_dropShadow" result="shape"/>
</filter>
</defs>
</svg>
