<svg width="20" height="21" fill="none" xmlns="http://www.w3.org/2000/svg">
    <path d="M10.002 14.175a3.56 3.56 0 01-2.544-1.076A3.715 3.715 0 016.404 10.5c0-.975.38-1.91 1.054-2.599a3.56 3.56 0 012.544-1.076c.955 0 1.87.387 2.545 1.076A3.715 3.715 0 0113.6 10.5c0 .975-.379 1.91-1.053 2.599a3.56 3.56 0 01-2.545 1.076zm7.639-2.657c.04-.336.072-.671.072-1.018s-.031-.693-.072-1.05l2.169-1.711a.538.538 0 00.123-.673l-2.056-3.632c-.123-.232-.4-.326-.627-.232l-2.56 1.05c-.534-.409-1.09-.766-1.737-1.028L12.573.44a.534.534 0 00-.179-.317.514.514 0 00-.336-.124H7.946a.523.523 0 00-.514.441l-.38 2.782c-.648.263-1.203.62-1.738 1.03l-2.56-1.05a.5.5 0 00-.627.23L.071 7.066a.525.525 0 00.124.673L2.364 9.45a9.165 9.165 0 00-.072 1.05c0 .347.03.682.072 1.018l-2.17 1.743a.525.525 0 00-.123.673l2.056 3.633c.124.23.401.314.628.23l2.56-1.06c.534.42 1.09.777 1.737 1.04l.38 2.782a.523.523 0 00.514.441h4.112a.523.523 0 00.514-.441l.38-2.783a7.451 7.451 0 001.738-1.039l2.56 1.06c.226.084.504 0 .627-.23l2.056-3.633a.538.538 0 00-.123-.672l-2.17-1.744z"
          fill="#fff"/>
</svg>
