<svg width="869" height="501" viewBox="0 0 869 501" fill="none" xmlns="http://www.w3.org/2000/svg">
    <g clip-path="url(#clip0)">
        <path opacity=".5" d="M215.65 328.11c-52.54-18.16-112.62-33.53-161.7-7.43-6.23 3.3-12.36 7.47-15.71 13.66-8.85 16.3 5.22 37.44-1.64 54.67-6.86 17.23-32.67 25.9-30.56 44.31.55 4.81 3.16 9.17 6.23 12.92 19.23 23.5 54.48 25.88 84.28 20.05 29.8-5.84 58.93-17.93 89.27-16.4 29.14 1.5 55.96 15.48 82.67 27.26 45.02 19.9 97.61 34.17 142.6 14.17 20.61-9.16 37.66-24.77 57.39-35.67a141.21 141.21 0 0187.17-16c20.04 2.83 39.17 9.93 58.78 14.84 44.54 11.12 91.04 10.76 136.94 10.32 8.54-.08 17.22-.18 25.41-2.63 12.13-3.64 22.13-12.03 31.75-20.24 12.66-10.78 25.98-22.62 30.06-38.74 4.82-19.14-5.15-39.47-19.95-52.47-14.79-13-33.7-20.11-52.15-26.97-4.56-1.67-9.42-3.38-14.09-2.1-3.06.83-5.63 2.87-7.92 5.07-13.1 12.6-24.17 33.94-42.03 30.51-6.38-1.22-11.6-5.66-16.64-9.76-26.95-21.87-63.2-38.75-95.71-26.67-23.78 8.84-40.57 31.54-64.67 39.55-17.15 5.7-35.77 3.23-53.81 4.34-26.24 1.6-51.77 10.88-78.04 10.32-66.98-1.44-122.8-65.51-189.51-59.41-5.23.47-10.93 1.68-14.14 5.81" fill="#4BBF85"/>
        <path d="M131.17 267.16s-55.67 33.62 46.98 85.39c0 0 22.62-42-2.38-76.26a33.7 33.7 0 00-43.73-9.58l-.87.45z" fill="#4BBF85"/>
        <path d="M131.84 266.46s47.65 36.45 46.32 86.06" stroke="#535461" stroke-miterlimit="10"/>
        <path d="M835.43 239.16c11.28 41.25-36.82 158.76-36.82 158.76s-101.22-76.65-112.51-117.9a77.48 77.48 0 0153.76-96.86 77.41 77.41 0 0195.56 56h.01z" fill="#4BBF85"/>
        <path opacity=".1" d="M835.43 239.16c11.28 41.25-36.82 158.76-36.82 158.76s-101.22-76.65-112.51-117.9a77.48 77.48 0 0153.76-96.86 77.41 77.41 0 0195.56 56h.01z" fill="#000"/>
        <path d="M740.75 185.14s63.01 95.15 58.3 213.01" stroke="#535461" stroke-miterlimit="10"/>
        <path d="M851.51 314.55s-57.13-31.09-49.9 83.67c0 0 47.66-1.7 64.57-40.59a33.72 33.72 0 00-13.83-42.6l-.84-.48z" fill="#4BBF85"/>
        <path d="M852.45 314.75s-7.38 59.57-50.84 83.47" stroke="#535461" stroke-miterlimit="10"/>
        <path d="M15.08 301.76s-55.69 33.6 46.97 85.35c0 0 22.62-42-2.39-76.26a33.7 33.7 0 00-43.72-9.58l-.86.49z" fill="#4BBF85"/>
        <path d="M15.72 301.06s47.66 36.44 46.33 86.06" stroke="#535461" stroke-miterlimit="10"/>
        <path d="M709.98 345.5h-58.52c1.34-2.7 2.04-5.69 2.04-8.71V70.22a19.6 19.6 0 00-19.6-19.6H180.9a19.6 19.6 0 00-19.6 19.6V336.8c0 3.03.7 6.01 2.04 8.72h-60.59a5.19 5.19 0 00-5.18 5.22v4.18a29 29 0 0028.98 28.99h559.64a28.98 28.98 0 0028.99-29v-4.17a5.2 5.2 0 00-5.19-5.23zM349.37 362.1l-5.05-5.7h124.6l-5.56 5.7h-114z" fill="url(#paint0_linear)"/>
        <path d="M626.72 54.4h-438.7a21.19 21.19 0 00-21.18 21.19v256.46a21.2 21.2 0 0021.19 21.2h438.69a21.2 21.2 0 0021.19-21.2V75.59c0-11.7-9.49-21.2-21.2-21.2z" fill="#535461"/>
        <path d="M636.77 97.96h-459.8V342.1h459.8V97.96zM406.87 80.74a4.05 4.05 0 100-8.11 4.05 4.05 0 000 8.1z" fill="#fff"/>
        <path d="M477.86 342.6l-15.8 16.2H350.7l-14.28-16.2h-226.8a5.06 5.06 0 00-5.07 5.06v4.09a28.34 28.34 0 0028.33 28.33h546.96a28.32 28.32 0 0028.33-28.33v-4.08a5.07 5.07 0 00-5.06-5.07H477.86z" fill="#535461"/>
        <path d="M235.71 113.15v207.67h343.32" stroke="#535461" stroke-width="2" stroke-miterlimit="10"/>
        <path opacity=".5" d="M301.54 258.02h-35.45v54.7h35.45v-54.7z" fill="#4BBF85"/>
        <path opacity=".7" d="M362.3 209.39h-35.44v103.33h35.44V209.4z" fill="#4BBF85"/>
        <path opacity=".5" d="M423.07 238.76h-35.44v73.95h35.44v-73.94z" fill="#4BBF85"/>
        <path opacity=".8" d="M483.83 193.18H448.4v119.54h35.44V193.18z" fill="#4BBF85"/>
        <path d="M544.6 150.63h-35.44v162.08h35.44V150.63z" fill="#4BBF85"/>
        <path d="M283.3 224.59l61.79-55.72 60.76 52.67 59.76-63.81 60.76-25.33" stroke="#535461" stroke-width="2" stroke-miterlimit="10"/>
        <path d="M283.3 231.68a7.09 7.09 0 100-14.18 7.09 7.09 0 000 14.18zM404.84 227.62a7.09 7.09 0 100-14.17 7.09 7.09 0 000 14.17zM466.62 164.82a7.09 7.09 0 100-14.18 7.09 7.09 0 000 14.18zM345.09 174.94a7.09 7.09 0 100-14.18 7.09 7.09 0 000 14.18zM526.37 139.49a7.09 7.09 0 100-14.18 7.09 7.09 0 000 14.18z" fill="#4BBF85"/>
        <path d="M790.03 351.47c-3.73-1.23-9.27-2.65-13.66-2.15-4.18-1.52-14-5.46-20.72-11.4.2-5.85.04-11.7-.45-17.52-3.43-39.06 4.3-64.8 4.3-64.8s6.06-19.65 5.4-35.95l.6 1.17c.53-14.06 5.32-28.6 8.91-37.67a3 3 0 00.4-.15l4.01-9.51c.32-.55.57-1.15.76-1.76l.64-1.5-.19-.08.2-.78c2.55-10.83 4.55-36.53 4.55-36.53 6.87-27.04-9.44-43.73-9.44-43.73l-27.67-23.82c.14.31.23.64.27.98l-.23-.2c-.39-1.12-.82-2.46-1.24-4a21 21 0 002.74-2.34 21.26 21.26 0 006.2-11.07c.54-3.3.68-6.67.41-10.02l-.46-11.49a36.46 36.46 0 00-.68-6.7c-2.08-9.1-11.42-15.48-20.8-15.9a76 76 0 00-8.92.47c-2.42.2-4.86.25-7.29.16a1.3 1.3 0 01-.78-.21c-.21-.21-.33-.5-.34-.8a3.95 3.95 0 01.97-2.96c.36-.32.8-.56 1.25-.72l-.66.16c.33-.26.7-.46 1.1-.6a21.21 21.21 0 00-6.91 2.51 8.9 8.9 0 00-1.62 1.36 7.05 7.05 0 00-2.33 4.33 8.07 8.07 0 01-2.46-3.64 3.65 3.65 0 010-1.77 12 12 0 00-.47.62v-.19c-1.76 2.17-3 4.7-3.64 7.42a2.88 2.88 0 01-.66-2.13c-.14.42-.26.85-.38 1.28a3 3 0 010-.86 29.38 29.38 0 00-1.43 10.19c0 3.44 1.53 8.81 5.22 10.02.19.07.38.11.58.16a23.17 23.17 0 0015.62 35.39l.18 1.32h.14c.1.9.18 1.91.24 2.93-.93.91-1.95 1.73-3.04 2.44a25.09 25.09 0 01-10.13 3.36 30.14 30.14 0 00-12.18 3.64c-4.42 2.47-9.3 6.07-10.82 10.44-2.55 7.3-16.6 18.64-26.02 20.05l-3.35-.2-.25-.07v.07l-.82-.05h-.26v.05l-.85-.05-.2 1.09c-4.74-1.64-14.8-6.15-27.9-18.04-14.57-13.24-34.3-10.64-41.9-8.97a1.3 1.3 0 00-.35 2.41c3.07 1.69 7.83 4.14 10.02 4.41 0 0-4.55 4.77.3 7.3a3.52 3.52 0 003.64-.36c2.35-1.72 8.88 2.18 18.34 4.2 0 0 26.71 27.65 39.97 31.9.3.6.65 1.19 1.01 1.76l.83-.07v.07h.34l.1.9s20.62-1.08 27.33-8.57c.47-.42.9-.89 1.3-1.4l-7.17 90.21h.07l-.07.86h5.28c.45 11.1-.03 22.2-1.43 33.22v58.8s-.28 5.18 10.47 12.76a401.89 401.89 0 0132.54 25.23l1.3 1.13c-1.98 18-6.11 51.53-9.56 52.78l2.13.38c-3.64 4.62-14 17.3-17.14 17.64-3.87.43-6.45 6.45 0 7.73a72.13 72.13 0 0038.25-3.77 5.84 5.84 0 003.65-6.22l-1.25-9.47c.24.13.43.33.54.57.86 2.58 0-3.43 0-3.43a268.64 268.64 0 008.3-34.63l12.76 11.03.7-.91c3.12 7.09 8.7 21.6 7.45 32.22-1.71 14.57 14.57 1.7 12.87-6.87-1.38-6.95 4.8-36.38 7.22-47.38a4.89 4.89 0 00-3.28-5.7z" fill="url(#paint1_linear)"/>
        <path d="M656.76 113.36s-12.15-2.1-30.17-18.44c-14.25-12.93-33.48-10.38-40.9-8.75a1.26 1.26 0 00-.34 2.35c3 1.64 7.65 4.03 9.82 4.3 0 0-4.49 4.65.29 7.14a3.43 3.43 0 003.58-.34c2.3-1.68 8.68 2.13 17.92 4.1 0 0 36.04 37.3 44.42 30.98l-4.62-21.34zM718.8 62.65s3.35 14.25 0 24.31l15.09 2.1 13.4-6.71v-8.8s-6.28-13.41-4.6-28.92L718.8 62.65z" fill="#FEC3BE"/>
        <path d="M761.51 371.53s10.93 21.37 9.22 35.62c-1.71 14.25 14.25 1.68 12.57-6.7-1.35-6.78 4.7-35.54 7.05-46.24a4.78 4.78 0 00-3.17-5.56c-5.03-1.66-13.47-3.7-17.7-.58-6.26 4.6-7.97 23.46-7.97 23.46zM720.06 395s-14.25 18.44-18.02 18.86c-3.77.42-6.28 6.28 0 7.54a70.43 70.43 0 0037.35-3.64 5.7 5.7 0 003.58-6.07l-2.4-17.95-20.51 1.26z" fill="#8B416F"/>
        <path d="M696.6 199.28l-13.67 1.82a200 200 0 01-.16 48.04v57.4s-.27 5.06 10.23 12.41c11 7.66 21.6 15.87 31.77 24.6l38.02 32.95s15.08-18.44 12.99-29.34c0 0-25.14-7.96-28.5-20.95-1.92-7.44-11.66-13.67-19.64-17.59a24.43 24.43 0 01-13.07-27.73c.46-1.89 1.18-3.7 2.14-5.39 6.7-11.73 16.34-38.14 16.34-38.14l-18.44-35.15-18.02-2.94z" fill="#4D4981"/>
        <path opacity=".05" d="M696.6 199.28l-13.67 1.82a200 200 0 01-.16 48.04v57.4s-.27 5.06 10.23 12.41c11 7.66 21.6 15.87 31.77 24.6l38.02 32.95s15.08-18.44 12.99-29.34c0 0-25.14-7.96-28.5-20.95-1.92-7.44-11.66-13.67-19.64-17.59a24.43 24.43 0 01-13.07-27.73c.46-1.89 1.18-3.7 2.14-5.39 6.7-11.73 16.34-38.14 16.34-38.14l-18.44-35.15-18.02-2.94z" fill="#000"/>
        <path d="M716.7 396.28s24.73 4.2 25.57 6.7c.83 2.52 0-3.35 0-3.35s14.24-43.17 10.93-81.3c-3.32-38.13 4.19-63.28 4.19-63.28s8.8-28.5 3.77-44.85c-5.03-16.35-57.83-9.22-57.83-9.22s18.44 43.17 18.02 63.7c0 0 2.1 62.04 5.87 69.16-.04-.03-5.9 60.74-10.51 62.44z" fill="#4D4981"/>
        <path d="M719.61 73.55s2.52 15.49 27.66 8.8l-16.73 127.4s-48.6 1.68-48.18-4.19l10.02-77.1 27.23-54.91z" fill="#fff"/>
        <path opacity=".1" d="M720.27 72.7a20.42 20.42 0 01-12.1 5.76 29.44 29.44 0 00-11.9 3.53c-4.31 2.42-9.11 5.93-10.57 10.2-2.93 8.38-21.37 22.21-29.75 19.28l2.93 25.15s23.89-1.26 28.08-10.48l-7.12 89.74h6.29s3.35-24.31 5.86-29.34c2.52-5.03 7.55-32.7 7.97-39.4.41-6.7 6.7-45.26 12.15-51.93l8.2-19.91-.04-2.6z" fill="#000"/>
        <path opacity=".1" d="M720.27 73.97a25.93 25.93 0 01-12.95 5.33 29.44 29.44 0 00-11.88 3.55c-4.31 2.41-9.11 5.92-10.57 10.2-2.93 8.38-21.37 22.21-29.75 19.28l2.93 25.14s23.89-1.25 28.08-10.47L679 216.68h6.29s3.35-24.31 5.87-29.34c2.51-5.03 7.54-32.7 7.96-39.4.42-6.7 6.7-45.26 12.15-51.93l9-19.54v-2.5z" fill="#000"/>
        <path d="M720.27 73.13a25.93 25.93 0 01-12.95 5.33 29.44 29.44 0 00-11.9 3.53c-4.3 2.42-9.1 5.93-10.56 10.2-2.93 8.38-21.37 22.21-29.75 19.28l2.93 25.15s23.89-1.26 28.08-10.48L679 215.88h6.29s3.35-24.31 5.87-29.34c2.51-5.03 7.54-32.7 7.96-39.4.42-6.7 6.7-45.27 12.15-51.94l9-19.48v-2.6z" fill="#FF575C"/>
        <path opacity=".1" d="M741.64 57c-.55-3.98.54-6.46 1.04-11.12L718.8 63.91s.58 2.43 1.01 6c1.2.19 2.43.28 3.65.28 8.28 0 14.25-6.47 18.18-13.2z" fill="#000"/>
        <path d="M723.41 68.95a22.63 22.63 0 100-45.26 22.63 22.63 0 000 45.26z" fill="#FEC3BE"/>
        <path opacity=".1" d="M698.72 24.13c-.15-3.82.47-7.63 1.82-11.2a2.8 2.8 0 00.47 3.64c.73-3.9 2.73-7.44 5.69-10.07-1.62.26-2.45 2.26-2.05 3.84a8.75 8.75 0 002.8 3.94c-.13-2.4 1.45-4.64 3.45-5.95a20.71 20.71 0 016.75-2.44 3.9 3.9 0 00-2.6 4c.02.3.14.57.35.78.22.14.49.21.76.2 2.36.1 4.72.04 7.08-.16 2.9-.32 5.8-.48 8.72-.46 9.1.38 18.26 6.6 20.3 15.49.42 2.16.64 4.35.66 6.54l.45 11.22a41 41 0 01-.4 9.8 20.77 20.77 0 01-10.67 14.1c-3.29-4.76-3.58-10.88-4.72-16.56a8.38 8.38 0 00-1.42-3.64 3.2 3.2 0 00-3.5-1.19c-1.23.5-1.76 2.37-.74 3.21-.91 1.07-2.62.27-3.64-.68a19.57 19.57 0 01-5.68-10.14c-.41-1.95-.82-4.36-2.73-5.03a5.08 5.08 0 00-2.02-.13c-4 .27-10.23 1.92-14.1.65-3.54-1.15-5.03-6.4-5.03-9.76z" fill="#000"/>
        <path d="M699.13 23.7c-.14-3.8.48-7.62 1.83-11.19a2.8 2.8 0 00.47 3.64c.73-3.9 2.73-7.43 5.69-10.07-1.62.26-2.45 2.26-2.05 3.84a8.75 8.75 0 002.8 3.94c-.14-2.4 1.45-4.64 3.45-5.95a20.71 20.71 0 016.74-2.44 3.9 3.9 0 00-2.58 4c0 .3.13.58.33.78.23.15.5.22.77.2 2.36.1 4.72.04 7.08-.15 2.9-.33 5.8-.49 8.71-.47 9.11.38 18.27 6.6 20.3 15.5.43 2.15.65 4.34.67 6.53l.45 11.22a41 41 0 01-.4 9.8 20.77 20.77 0 01-10.67 14.1c-3.29-4.76-3.58-10.88-4.72-16.56a8.37 8.37 0 00-1.42-3.64 3.2 3.2 0 00-3.5-1.19c-1.23.5-1.76 2.37-.74 3.21-.91 1.08-2.62.27-3.65-.68a19.57 19.57 0 01-5.67-10.14c-.41-1.95-.82-4.36-2.73-5.02a5.08 5.08 0 00-2.03-.14c-3.99.27-10.23 1.92-14.09.66-3.54-1.17-5.03-6.41-5.03-9.77z" fill="#784F69"/>
        <path opacity=".1" d="M654.03 111.48s-3.36 15.49 2.93 25.15l3.56-.3-1.94-24.6-4.55-.25z" fill="#000"/>
        <path d="M654.94 111.48s-3.35 15.49 2.93 25.15l3.56-.3-1.94-24.6-4.55-.25z" fill="#FF575C"/>
        <path opacity=".1" d="M744.99 69.18l27.03 23.26s15.92 16.35 9.22 42.75c0 0-2.94 38.56-6.29 40.24 0 0-11.73 23.47-12.57 45.69 0 0-15.71-31.65-22.84-12.37-7.12 19.28-23.68 22-23.68 22l9.22-114.03s23.26-40.45 19.91-47.54z" fill="#000"/>
        <path d="M745.83 69.18l27.02 23.26s15.93 16.35 9.22 42.75c0 0-2.93 38.56-6.28 40.24 0 0-11.74 23.47-12.57 45.69 0 0-16.55-33.33-23.69-14.05-7.13 19.28-22.83 23.7-22.83 23.7l9.22-114s23.26-40.5 19.9-47.59z" fill="#FF575C"/>
        <path d="M758.19 167.43s6.7-4.6 17.6 7.97L748.97 224l-9-13.6s19.06-37.53 18.22-42.98z" fill="#FEC3BE"/>
        <path opacity=".1" d="M751.7 170.16s14.82 16.65 20.6 13.98l5.36-12.47-20.1-8.64-5.87 7.13z" fill="#000"/>
        <path d="M751.7 169.32s14.82 16.65 20.6 13.98l5.36-12.47-20.1-8.64-5.87 7.13z" fill="#FF575C"/>
        <path opacity=".1" d="M740.87 207.23s7.06 14.47 10.82 15.3l-5.46 6.3-7.96-15.1 2.6-6.5z" fill="#000"/>
        <path d="M740.45 207.68s7.06 14.47 10.82 15.3l-5.46 6.3-7.98-15.13 2.62-6.47z" fill="#4D4981"/>
        <path opacity=".1" d="M753.79 118.19s.84 30.17-2.51 41.49l2.5-41.5zM685.9 124.05s5.04-1.67 5.04-5.86l-5.03 5.86z" fill="#000"/>
        <path d="M75.32 129.1s-23.88 49.42-8.2 107.9c15.69 58.5 10.7 128.48-4.93 145.79" stroke="#535461" stroke-width="2" stroke-miterlimit="10"/>
        <path d="M75.32 135.7a6.59 6.59 0 100-13.18 6.59 6.59 0 000 13.18z" fill="#4BBF85"/>
        <path d="M65.4 160.89s24.75 4.46 31.34-4.56M63.04 175.24s-14.89-16.48-14.07-26.37M61.78 205.44s13.54 3.57 25.9-22.78M65.4 227.4s-33.71-21.7-29.6-35.7M70.66 252.22s23.6-20.95 21.14-41.57M73.23 266.82s-30.06-8.4-29.15-21.58M75.32 284.21s18.94-17.55 21.4-28.24M76.64 314.05s-19.43-22.69-20.26-34.21M76.64 332.83s21.75-24.16 23.39-35.69" stroke="#535461" stroke-width="2" stroke-miterlimit="10"/>
        <path d="M48.97 157.1a6.59 6.59 0 100-13.17 6.59 6.59 0 000 13.18zM41.56 251.83a6.59 6.59 0 100-13.17 6.59 6.59 0 000 13.17zM35.8 198.3a6.59 6.59 0 100-13.18 6.59 6.59 0 000 13.17zM96.74 162.88a6.59 6.59 0 100-13.18 6.59 6.59 0 000 13.18zM96.74 264.19a6.59 6.59 0 100-13.18 6.59 6.59 0 000 13.18zM86.03 189.24a6.59 6.59 0 100-13.18 6.59 6.59 0 000 13.18zM99.2 307.85a6.59 6.59 0 100-13.18 6.59 6.59 0 000 13.18zM54.74 290.54a6.59 6.59 0 100-13.17 6.59 6.59 0 000 13.17zM92.62 217.24a6.59 6.59 0 100-13.18 6.59 6.59 0 000 13.18z" fill="#4BBF85"/>
    </g>
    <defs>
        <linearGradient id="paint0_linear" x1="406.36" y1="383.86" x2="406.36" y2="50.61" gradientUnits="userSpaceOnUse">
            <stop stop-color="gray" stop-opacity=".25"/>
            <stop offset=".54" stop-color="gray" stop-opacity=".12"/>
            <stop offset="1" stop-color="gray" stop-opacity=".1"/>
        </linearGradient>
        <linearGradient id="paint1_linear" x1="185804" y1="274918" x2="185804" y2="74762.5" gradientUnits="userSpaceOnUse">
            <stop stop-color="gray" stop-opacity=".25"/>
            <stop offset=".54" stop-color="gray" stop-opacity=".12"/>
            <stop offset="1" stop-color="gray" stop-opacity=".1"/>
        </linearGradient>
        <clipPath id="clip0">
            <path fill="#fff" d="M0 0h869v501H0z"/>
        </clipPath>
    </defs>
</svg>